<svg id="svg1768" xmlns="http://www.w3.org/2000/svg" width="249.24" height="301.17" viewBox="0 0 249.24 301.17">
  <defs>
    <style>
      .cls-1 {
        fill: #ffd73e;
      }

      .cls-2 {
        fill: #ee4e36;
      }

      .cls-3 {
        fill: #fff;
      }

      .cls-4 {
        fill: #ee7277;
      }
    </style>
  </defs>
  <title>pikachu</title>
  <g id="layer1">
    <g id="g2864">
      <path id="path2423" d="M173.43,0h-.25a.92.92,0,0,0-.27.08,1.46,1.46,0,0,0-.68.34c-.76.7-1.18,2-1.57,5.2v.09c-.11.94-.22,2-.33,3.32s-.16,5.33-.17,10.44c0,2.92,0,6.07,0,9.37,0,6.53.14,12.9.28,16,.12,2.61.25,5.2.4,7.74,0,.93.1,1.79.15,2.55,0,.36,0,.74.08,1.1.91,14.1,2.23,26.13,3.35,29.82a.43.43,0,0,0,0,.05c0,.09,0,.18,0,.23,0,.21-.32.19-1.17,0-6-1.33-19.55-1.32-31.31,0-8.61,1-21.47,4.17-25.85,6.38l-.39.2c-.39.15-.73.27-1,.34a1.78,1.78,0,0,1-.72,0l-.87-.57c-2.11-1.4-6.33-3.7-10.78-5.94L101,86.12c-1.52-.76-3.11-1.52-4.76-2.26-1.48-.69-2.92-1.34-4.18-1.88C73,73.92,49.72,68.07,30.4,66.48c-2.16-.18-4.83-.27-7.45-.29l-1.85,0c-1,0-1.93,0-2.82.08l-1.71.07a17.83,17.83,0,0,0-4.36.54,5.55,5.55,0,0,0-.81.49,1.29,1.29,0,0,0-.77,1.08,1.88,1.88,0,0,0,.18.66,5,5,0,0,0,.32.76A21.5,21.5,0,0,0,14,73.29c1.14,1.22,2.48,2.53,3.92,3.8s2.57,2.28,3.58,3c3.26,2.41,9.94,7,10.22,7a5.41,5.41,0,0,1,1.24.74c1.24.88,4,2.45,7.36,4.31.87.53,2.87,1.59,5.33,2.86,7.34,3.85,15.94,8.1,21,10.29,1.62.69,3.34,1.41,5.08,2.13,1,.42,2.27,1,3.82,1.56,7.19,2.9,14.2,5.54,17.11,6.38,1.09.32,1.59.52,1.75.75,0,.2-.07.51-.15.91-1.4,4.07-3.07,14.86-3.08,20.24q0,.45,0,.84a3.5,3.5,0,0,1,0,.37,2.09,2.09,0,0,1-.33,1,9.78,9.78,0,0,1-1.1-.39c-.63-.27-1.46-.64-2.33-1-1.77-.82-3.6-1.62-4.07-1.76s-1.63-.62-2.57-1.05c-2.19-1-6-2.43-11.66-4.37A248.9,248.9,0,0,0,20.24,119.5c-1.79-.21-4.58-.44-7.5-.64-2.26-.18-4.49-.32-6.67-.41-1,0-1.85-.06-2.56-.07a17.65,17.65,0,0,0-3,0,.75.75,0,0,0-.47.59,1.3,1.3,0,0,0-.08.51v0H0a3.83,3.83,0,0,0,.12.71,30.35,30.35,0,0,0,1.21,4.24c2.7,8,7,18.33,11.44,28.1h0c.16.41.62,1.38,1.21,2.62a229.33,229.33,0,0,0,10.64,20.54,21.64,21.64,0,0,0,2.31,3.51,1.69,1.69,0,0,0,.29.34l.17,0c.94.56,2.22.39,5.37.25.5,0,1.25,0,2.17,0,1.8,0,3.75,0,5.87.06,1.89,0,3.72,0,5.5.06,7.13.13,14.75.36,17.33.57l4.72.36,1.23.1a6.88,6.88,0,0,1,2,.45,6,6,0,0,1-.1.66l-.35,1.2c-2.91,9.45-9.42,32.18-9.42,32.9a1.38,1.38,0,0,0,0,.2l0,.14c0,.09.14.21.4.37.68.57,2.36,1.25,6.12,2.59,6.25,2.22,14.13,5.16,16,6l.19.11a2.48,2.48,0,0,1,1,1.06,3.39,3.39,0,0,1,.27.66c.22.71.71,2.1,1.1,3.09l.12.31a8.71,8.71,0,0,1,.38,1.72,2.64,2.64,0,0,1-.21.76c-.36.88-.63,1-2.35,1.24a15.23,15.23,0,0,0-3.32.83,11.09,11.09,0,0,0-2.06.9,10.13,10.13,0,0,0-4.06,3.25,4.64,4.64,0,0,1-1.11.78,14.2,14.2,0,0,1-1.18-1.55,39,39,0,0,0-3.16-3.76c-.18-.18-.35-.37-.52-.55l-.3-.31c-2.39-2.45-2.92-2.84-3.93-2.85H65c-1.38,0-2.16.88-2.44,2.61a4.22,4.22,0,0,1-.66,1.68,1.46,1.46,0,0,0-.29.31c-.63.71-1,2.15-1.14,4.12,0,.46-.07.92-.07,1.38,0,.62,0,1.29.07,2a77.65,77.65,0,0,0,2.88,16.2c.48,1.7,1.08,3.88,1.35,4.85a96,96,0,0,0,3.72,10.46c.45,1.24,1.3,3.18,2.33,5.31a70.48,70.48,0,0,0,3.53,6.82c3.17,5.19,5.73,8,8.3,9.15,1.75.77,2.84.64,4-.46l.72-.72,2.27.74.18,0a13.23,13.23,0,0,0,2.74.74c.52.11,1,.22,1.41.29,2.62.43,14.52.42,19.89,0,2.26-.18,6-.43,8.29-.56l4.18-.22-.19,1.43a3,3,0,0,0,.23,1.88,1.69,1.69,0,0,0,1.62.86,6.93,6.93,0,0,0,2.89-.69l1.71-.73,1.12,1.22a2.38,2.38,0,0,0,.64.66,3,3,0,0,0,.76.62,6.4,6.4,0,0,0,2.49-1.46l.39-.36a1.06,1.06,0,0,1,.38-.18l.2.06.87.87c1.26,1.27,1.67,1.21,4.26-.53l1.71-1.15.22.25.93,1.12c1.7,2,2.75,1.92,5.28-.58l1.51-1.5a3.33,3.33,0,0,1,.66-.41l1.44.41c.82.23,1.44.39,1.95.49l1.2.35.82-.43a9.32,9.32,0,0,0,1.26-.55l1.81-.92,1.93,1.88.14.13a10.6,10.6,0,0,0,1.18,1c2.08,1.64,3.3,1.43,3.91-.61.06-.22.12-.37.17-.55a3.45,3.45,0,0,1,.36-.78c.11,0,1.13.62,2.38,1.35a13.07,13.07,0,0,0,2.84,1.37,2.29,2.29,0,0,0,1.75-1.63h0a.73.73,0,0,1,.45-.29l.15.05A11.83,11.83,0,0,0,180,299c1.78.17,1.83.15,2.22-.9a2.15,2.15,0,0,1,.41-.77l.05,0a2.54,2.54,0,0,1,.86-.25h.79l.33,0h.16c1.57-.11,2.46-.76,2.46-1.83,0-.45,0-.62,2.37-.69l2.87.08c3.06.08,6.85,0,10.85-.23a131.54,131.54,0,0,0,15.47-1.41l4-.53.65-.09.07.06.79.88a5.12,5.12,0,0,0,2.76,1.66h0a5.44,5.44,0,0,0,3.08-.43,13.44,13.44,0,0,0,4.33-3.88,34.94,34.94,0,0,0,2.85-4,50.17,50.17,0,0,0,3.2-5.94,103.66,103.66,0,0,0,8.5-34.31,17.86,17.86,0,0,0,.11-3.3c0-.06,0-.23-.07-.43-.13-3.9-.84-6.76-2.23-7.9a6.91,6.91,0,0,1-1.3-1.72,1.69,1.69,0,0,0-.58-1,1.41,1.41,0,0,0-1.11-.7,2.26,2.26,0,0,0-.43-.11h-.21a1.59,1.59,0,0,0-.43.06c-.6.06-1,.35-1.73,1.13a5.23,5.23,0,0,1-1.18.95c-.18.09-.33.14-.41.1-.37-.14-.88.13-1.47.75a8.56,8.56,0,0,0-1.32,1.71,33.41,33.41,0,0,0-1.91,3.43c-.91,1.86-1.6,3.22-1.86,3.73-.11.17-.2.33-.26.4a23.26,23.26,0,0,1-2.24-2c-3.88-3.86-7.85-6.58-10.59-7.23-.62-.15-1.11-.73-1.73-2-.48-1-2-4.13-3.47-7-4.86-9.6-7.66-18.3-8.34-25.9-.11-1.23-.28-2.89-.38-3.69a6.28,6.28,0,0,1-.06-.79,3.39,3.39,0,0,1,.26-.87,20.8,20.8,0,0,1,2.31-2.63c1.47-1.56,3.22-3.52,3.87-4.37s1.27-1.62,1.38-1.72a37.4,37.4,0,0,0,3.84-6c.8-1.35,1.51-2.68,2.12-3.95s1.21-2.5,1.5-3.3a30,30,0,0,0,1.42-9.14c-.13-5-.91-8.26-4.08-17.1A124,124,0,0,1,212.64,125,73.32,73.32,0,0,0,208,109.55l-1.67-3.94c0-.5-.08-1.13-.1-2v-.49c0-.68,0-1.44,0-2.37,0-1.7,0-3.56-.09-5.5s-.1-3.47-.18-5.08a168.39,168.39,0,0,0-5.2-35.78c-4.65-19.08-13.58-39.11-22.29-50A15.81,15.81,0,0,0,174.22.36a1.81,1.81,0,0,0-.79-.35ZM96,187.47,98.76,193l-5.2,21.14-11.09-5.54Z"/>
      <path id="path2700" class="cls-1" d="M135.16,301.09l-.2,0h0l.2,0Z"/>
      <path id="path2698" class="cls-1" d="M149.68,300.82a2.9,2.9,0,0,1-.64.28A2.9,2.9,0,0,0,149.68,300.82Z"/>
      <path id="path2696" class="cls-1" d="M141.67,300.68a2.22,2.22,0,0,1-.75.24A2.22,2.22,0,0,0,141.67,300.68Z"/>
      <path id="path2694" class="cls-1" d="M139.93,300.63a1.49,1.49,0,0,0,.38.22A1.49,1.49,0,0,1,139.93,300.63Z"/>
      <path id="path2692" class="cls-1" d="M147,300.41a4.26,4.26,0,0,0,.57.46A4.26,4.26,0,0,1,147,300.41Z"/>
      <path id="path2690" class="cls-1" d="M175.1,300.41l.15,0h0l-.15,0Z"/>
      <path id="path2688" class="cls-1" d="M176.09,300.09a1.85,1.85,0,0,1-.57.3A1.85,1.85,0,0,0,176.09,300.09Z"/>
      <path id="path2686" class="cls-1" d="M128.45,300a4.24,4.24,0,0,1-.61,0l-.28,0,.28,0a4.24,4.24,0,0,0,.61,0Z"/>
      <path id="path2684" class="cls-1" d="M129.51,299.81c-.26.07-.5.13-.73.17C129,299.94,129.25,299.88,129.51,299.81Z"/>
      <path id="path2682" class="cls-1" d="M130.3,299.53c-.27.11-.54.2-.79.28C129.76,299.73,130,299.64,130.3,299.53Z"/>
      <path id="path2680" class="cls-1" d="M138.05,299.19l-.21.12-.39.36a9.21,9.21,0,0,1-1.37,1,9.21,9.21,0,0,0,1.37-1l.39-.36Z"/>
      <path id="path2678" class="cls-1" d="M138.22,299.13l-.17.06.17-.06.2.06h0l-.2-.06Z"/>
      <path id="path2676" class="cls-1" d="M181.52,299a2.91,2.91,0,0,1-.47,0A2.91,2.91,0,0,0,181.52,299Z"/>
      <path id="path2674" class="cls-1" d="M181.74,298.94a.67.67,0,0,1-.21.09A.67.67,0,0,0,181.74,298.94Z"/>
      <path id="path2672" class="cls-1" d="M181.9,298.79l-.08.08Z"/>
      <path id="path2670" class="cls-1" d="M177.11,298.68l-.11.12h0s0,.07,0,.12,0-.09,0-.12h0l.11-.12Z"/>
      <path id="path2668" class="cls-1" d="M178,298.67a17,17,0,0,0,2,.3A17,17,0,0,1,178,298.67Z"/>
      <path id="path2666" class="cls-1" d="M132.44,298.63l-1.71.73-.43.17.43-.17,1.71-.73Z"/>
      <path id="path2664" class="cls-1" d="M145.25,298.38l-1.7,1.15q-.48.33-.87.57.39-.24.87-.57l1.71-1.15Z"/>
      <path id="path2662" class="cls-1" d="M169.38,299.41a2.75,2.75,0,0,1-.46.82A2.75,2.75,0,0,0,169.38,299.41Z"/>
      <path id="path2660" class="cls-1" d="M169.88,298a4.42,4.42,0,0,0-.21.51c0,.18-.11.33-.17.55l-.12.36.12-.36c.06-.22.12-.37.17-.55S169.81,298.13,169.88,298Z"/>
      <path id="path2658" class="cls-1" d="M170,297.72l-.07.1.07-.1Z"/>
      <path id="path2656" class="cls-1" d="M182.43,297.61a4.43,4.43,0,0,0-.2.47l-.13.35.13-.35A4.43,4.43,0,0,1,182.43,297.61Z"/>
      <path id="path2654" class="cls-1" d="M182.64,297.31a1.14,1.14,0,0,0-.21.3,1.14,1.14,0,0,1,.21-.3Z"/>
      <path id="path2652" class="cls-1" d="M183.55,297a3.41,3.41,0,0,0-.7.17A3.58,3.58,0,0,1,183.55,297Z"/>
      <path id="path2650" class="cls-1" d="M184.13,297h0Z"/>
      <path id="path2648" class="cls-1" d="M185.38,296.92l-.55.07h0l.55-.07Z"/>
      <path id="path2646" class="cls-1" d="M151.23,299.61c-.29.27-.57.51-.82.71C150.66,300.12,150.94,299.88,151.23,299.61Z"/>
      <path id="path2644" class="cls-1" d="M153.56,297.42l-.36.25-1.51,1.5-.46.44.46-.44,1.51-1.5Z"/>
      <path id="path2642" class="cls-1" d="M162.34,296.61l-1.81.92a9.32,9.32,0,0,1-1.26.55l-.82.43-1.2-.35c-.51-.1-1.13-.26-1.95-.49l-1.44-.41a2.25,2.25,0,0,0-.3.16,2.25,2.25,0,0,1,.3-.16l1.44.41c.82.23,1.44.39,1.95.49l1.2.35.82-.43a9.32,9.32,0,0,0,1.26-.55l1.81-.92Z"/>
      <path id="path2640" class="cls-1" d="M186.79,296.31a1.75,1.75,0,0,1-.49.33A1.75,1.75,0,0,0,186.79,296.31Z"/>
      <path id="path2638" class="cls-1" d="M83.75,296.45a3.35,3.35,0,0,0,.53.07A3.35,3.35,0,0,1,83.75,296.45Z"/>
      <path id="path2636" class="cls-1" d="M83.25,296.31c.17.06.34.1.5.14C83.59,296.41,83.42,296.37,83.25,296.31Z"/>
      <path id="path2634" class="cls-1" d="M94.41,296.75c.47.05,1.06.09,1.76.12C95.47,296.84,94.88,296.8,94.41,296.75Z"/>
      <path id="path2632" class="cls-1" d="M91.78,296.27l.63.12c.52.12,1,.22,1.41.29l.59.07-.59-.07c-.39-.07-.89-.18-1.41-.3Z"/>
      <path id="path2630" class="cls-1" d="M117.84,296.36l-4.13.3c-.67.06-1.44.11-2.29.15.85,0,1.62-.09,2.29-.15Z"/>
      <path id="path2628" class="cls-1" d="M126.18,295.88l-4.18.22c-1.15.06-2.65.16-4.16.26,1.51-.1,3-.2,4.16-.26l4.18-.22Z"/>
      <path id="path2626" class="cls-1" d="M81.59,295.53a7.44,7.44,0,0,0,1,.51A7.44,7.44,0,0,1,81.59,295.53Z"/>
      <path id="path2624" class="cls-1" d="M187.3,295a.76.76,0,0,0,0,.15,1.27,1.27,0,0,1,0,.2,1.21,1.21,0,0,0,0-.19A.81.81,0,0,1,187.3,295Z"/>
      <path id="path2622" class="cls-1" d="M85.22,296.41a2.26,2.26,0,0,1-.45.1A2.26,2.26,0,0,0,85.22,296.41Z"/>
      <path id="path2620" class="cls-1" d="M86.29,295.78a3,3,0,0,1-1.07.63A3,3,0,0,0,86.29,295.78Z"/>
      <path id="path2618" class="cls-1" d="M87.22,294.86l-.72.72-.21.2.21-.2.72-.72,2.27.74.18,0h0l-.18,0Z"/>
      <path id="path2616" class="cls-1" d="M227.13,294.9a4.88,4.88,0,0,0,1.48,0A4.88,4.88,0,0,1,227.13,294.9Z"/>
      <path id="path2614" class="cls-1" d="M226.72,294.8a2.22,2.22,0,0,0,.37.09h0a2.22,2.22,0,0,1-.37-.09Z"/>
      <path id="path2612" class="cls-1" d="M187.42,294.76l0,.05Z"/>
      <path id="path2610" class="cls-1" d="M188.3,294.54a1.89,1.89,0,0,0-.88.22A1.89,1.89,0,0,1,188.3,294.54Z"/>
      <path id="path2608" class="cls-1" d="M189.66,294.47l-.77,0,.77,0,2.87.08c1.53,0,3.24,0,5.07,0-1.83,0-3.54,0-5.07,0Z"/>
      <path id="path2606" class="cls-1" d="M230.21,294.47a7.83,7.83,0,0,1-.81.28A7.83,7.83,0,0,0,230.21,294.47Z"/>
      <path id="path2604" class="cls-1" d="M205.26,294.25l-1.88.07-2.95.14,2.95-.14Z"/>
      <path id="path2602" class="cls-1" d="M225,293.85a4.72,4.72,0,0,0,1,.67A4.72,4.72,0,0,1,225,293.85Z"/>
      <path id="path2600" class="cls-1" d="M79.13,293.52l.5.49Z"/>
      <path id="path2598" class="cls-1" d="M214.38,293.49c-2.71.32-5,.53-7.33.67C209.41,294,211.67,293.81,214.38,293.49Z"/>
      <path id="path2596" class="cls-1" d="M232.23,293.07a9.39,9.39,0,0,1-1.06.85A9.39,9.39,0,0,0,232.23,293.07Z"/>
      <path id="path2594" class="cls-1" d="M223.47,292.29l-.66.09-4,.53-2.34.31,2.34-.31,4-.53.65-.09Z"/>
      <path id="path2592" class="cls-1" d="M235.26,289.68c-.24.31-.48.62-.72.91l-.59.71.59-.71C234.78,290.3,235,290,235.26,289.68Z"/>
      <path id="path2590" class="cls-1" d="M248.25,254.29c-.22,1.42-.48,2.87-.77,4.35C247.77,257.16,248,255.71,248.25,254.29Z"/>
      <path id="path2588" class="cls-1" d="M249.13,242.59a2.66,2.66,0,0,0,.07.43,5.28,5.28,0,0,1,0,1.11,5.28,5.28,0,0,0,0-1.11,2.66,2.66,0,0,1-.07-.43Z"/>
      <path id="path2586" class="cls-1" d="M74,239.9l.24.27h0L74,239.9Z"/>
      <path id="path2584" class="cls-1" d="M248.75,238.77c.06.32.11.67.16,1C248.86,239.44,248.81,239.09,248.75,238.77Z"/>
      <path id="path2582" class="cls-1" d="M72.75,238.2c.11.14.23.3.31.42.23.34.46.65.66.92-.2-.27-.43-.58-.66-.92C73,238.5,72.86,238.34,72.75,238.2Z"/>
      <path id="path2580" class="cls-1" d="M247.81,235.86a5.38,5.38,0,0,1,.37.8A5.38,5.38,0,0,0,247.81,235.86Z"/>
      <path id="path2578" class="cls-1" d="M247.15,234.92a4,4,0,0,1,.46.59A4,4,0,0,0,247.15,234.92Z"/>
      <path id="path2576" class="cls-1" d="M218.89,233.39a3.2,3.2,0,0,0,.22.27A3.2,3.2,0,0,1,218.89,233.39Z"/>
      <path id="path2574" class="cls-1" d="M68.26,233.17l.82.83.3.31c.17.18.34.37.52.55.65.7,1.3,1.44,1.86,2.1-.56-.66-1.21-1.4-1.86-2.1-.18-.18-.35-.37-.52-.55l-.3-.31Z"/>
      <path id="path2572" class="cls-1" d="M245.55,232.75a1.55,1.55,0,0,1,0,.23A1.55,1.55,0,0,0,245.55,232.75Z"/>
      <path id="path2570" class="cls-1" d="M84.76,225.76,85,226Z"/>
      <path id="path2568" class="cls-1" d="M73.13,221.26c3.3,1.2,6.52,2.4,8.73,3.24C79.65,223.66,76.43,222.46,73.13,221.26Z"/>
      <path id="path2566" class="cls-1" d="M64,217.92l1.77.69Z"/>
      <path id="path2564" class="cls-1" d="M62.85,217.37c.31.16.71.34,1.19.55C63.56,217.71,63.16,217.53,62.85,217.37Z"/>
      <path id="path2562" class="cls-1" d="M210.92,216.91c.39,1,.8,2,1.23,2.93C211.72,218.86,211.31,217.88,210.92,216.91Z"/>
      <path id="path2560" class="cls-1" d="M61.84,216.7l.13.1Z"/>
      <path id="path2558" class="cls-1" d="M206.29,193.69l-.14.21a3,3,0,0,0-.15.42,3,3,0,0,1,.15-.42Z"/>
      <path id="path2556" class="cls-1" d="M209.59,190.05c-.38.42-.77.83-1.14,1.22l-.86.92.87-.92Z"/>
      <path id="path2552" class="cls-1" d="M213.22,185.76c-.25.31-.57.71-.89,1.14l-.68.82.68-.82C212.65,186.47,213,186.07,213.22,185.76Z"/>
      <path id="path2550" class="cls-1" d="M214,184.88a2.92,2.92,0,0,1-.28.3c-.06,0-.24.27-.49.58.25-.31.43-.53.49-.58A2.92,2.92,0,0,0,214,184.88Z"/>
      <path id="path2548" class="cls-1" d="M214.79,183.79c-.31.45-.58.83-.8,1.09C214.21,184.62,214.48,184.24,214.79,183.79Z"/>
      <path id="path2546" class="cls-1" d="M70.33,181.1a7.36,7.36,0,0,1,1,.23A7.36,7.36,0,0,0,70.33,181.1Z"/>
      <path id="path2544" class="cls-1" d="M60.84,180.37c1.18,0,2.15.11,2.79.16C63,180.48,62,180.42,60.84,180.37Z"/>
      <path id="path2542" class="cls-1" d="M51.65,180.07c3.52.09,6.81.2,9.19.3C58.46,180.27,55.17,180.16,51.65,180.07Z"/>
      <path id="path2540" class="cls-1" d="M33.68,179.85l-.92,0-2,.1,2-.1.92,0Z"/>
      <path id="path2538" class="cls-1" d="M34.93,179.84h0c1.8,0,3.75,0,5.87.06,1.89,0,3.72,0,5.5.06-1.78,0-3.61-.05-5.5-.06l-5.87-.06Z"/>
      <path id="path2536" class="cls-1" d="M27.1,179.48a.66.66,0,0,0,.12.12l.17,0,.18.1-.18-.1-.17,0A.66.66,0,0,1,27.1,179.48Z"/>
      <path id="path2534" class="cls-1" d="M26.46,178.71a5.37,5.37,0,0,0,.47.55A5.37,5.37,0,0,1,26.46,178.71Z"/>
      <path id="path2532" class="cls-1" d="M218.14,178.22l-.59,1c-.4.7-.79,1.39-1.18,2,.39-.64.79-1.33,1.18-2Z"/>
      <path id="path2530" class="cls-1" d="M219.19,176.24c-.32.65-.68,1.31-1.05,2C218.51,177.55,218.87,176.89,219.19,176.24Z"/>
      <path id="path2528" class="cls-1" d="M220.14,174.32l-.47,1c-.16.32-.31.64-.48,1,.17-.32.32-.64.48-1Z"/>
      <path id="path2526" class="cls-1" d="M220.9,172.64c-.2.49-.46,1.06-.76,1.68C220.44,173.7,220.7,173.13,220.9,172.64Z"/>
      <path id="path2524" class="cls-1" d="M221.47,171c-.09.34-.2.67-.3,1s-.16.42-.27.66q.16-.36.27-.66C221.27,171.69,221.38,171.36,221.47,171Z"/>
      <path id="path2522" class="cls-1" d="M222.56,162c0,.29,0,.58,0,.89s0,.68,0,1c0-.37,0-.72,0-1s0-.6,0-.89Z"/>
      <path id="path2520" class="cls-1" d="M222.35,159.39c.07.54.12,1.09.16,1.64C222.47,160.48,222.42,159.93,222.35,159.39Z"/>
      <path id="path2512" class="cls-1" d="M221.22,153.94c.17.63.33,1.22.47,1.79C221.55,155.16,221.39,154.57,221.22,153.94Z"/>
      <path id="path2504" d="M91.11,138.85a2.25,2.25,0,0,1-.17.52A2.25,2.25,0,0,0,91.11,138.85Z"/>
      <path id="path2500" class="cls-1" d="M5,134.31c.93,2.33,1.91,4.75,2.94,7.2C6.86,139.06,5.88,136.64,5,134.31Z"/>
      <path id="path2492" d="M212.12,122.59c.17.75.34,1.55.52,2.39.24,1.14.46,2.17.67,3.14-.21-1-.43-2-.67-3.14C212.46,124.14,212.29,123.34,212.12,122.59Z"/>
      <path id="path2486" class="cls-1" d="M77.12,109.57c2.18.86,4.33,1.71,6.31,2.47C81.45,111.28,79.3,110.43,77.12,109.57Z"/>
      <path id="path2484" d="M206.23,104.76c0,.32,0,.6.06.85l1.66,3.94-1.66-3.94C206.27,105.36,206.25,105.08,206.23,104.76Z"/>
      <path id="path2482" class="cls-1" d="M206.06,95.3c.06,1.94.09,3.8.09,5.5C206.15,99.1,206.12,97.24,206.06,95.3Z"/>
      <path id="path2480" class="cls-1" d="M174.24,85.31c.07.3.14.56.21.79a.11.11,0,0,1,0,.05.11.11,0,0,0,0-.05c-.07-.23-.14-.49-.21-.79Z"/>
      <path id="path2478" class="cls-1" d="M22.12,80.53c.7.52,1.49,1.09,2.35,1.69C23.61,81.62,22.82,81.05,22.12,80.53Z"/>
      <path id="path2476" class="cls-1" d="M200.68,54.44c.36,1.47.69,2.89,1,4.28C201.37,57.33,201,55.91,200.68,54.44Z"/>
      <path id="path2474" class="cls-1" d="M172.92,77a79.48,79.48,0,0,0,1.32,8.32A79.48,79.48,0,0,1,172.92,77Z"/>
      <path id="path2472" class="cls-1" d="M171.85,66.37c.34,4,.7,7.56,1.07,10.62C172.55,73.93,172.19,70.33,171.85,66.37Z"/>
      <path id="path2470" class="cls-1" d="M170.66,48.78c.07,1.3.14,2.58.21,3.85,0,.93.1,1.79.15,2.55,0,.36,0,.74.08,1.1.23,3.53.48,6.92.75,10.09-.27-3.17-.52-6.56-.75-10.09,0-.36-.06-.74-.08-1.1-.05-.76-.1-1.62-.15-2.55C170.8,51.36,170.73,50.08,170.66,48.78Z"/>
      <path id="path2468" class="cls-1" d="M198.74,47.26c.31,1,.6,2.07.88,3.1C199.34,49.33,199.05,48.3,198.74,47.26Z"/>
      <path id="path2466" class="cls-1" d="M197.78,44.1c.33,1,.65,2.11,1,3.16C198.43,46.21,198.11,45.15,197.78,44.1Z"/>
      <path id="path2464" class="cls-1" d="M195.2,36.58c.6,1.61,1.16,3.23,1.71,4.86C196.36,39.81,195.8,38.19,195.2,36.58Z"/>
      <path id="path2460" class="cls-1" d="M191.06,26.37c.73,1.64,1.44,3.32,2.14,5C192.5,29.69,191.79,28,191.06,26.37Z"/>
      <path id="path2458" class="cls-1" d="M189.57,23.13c.51,1.06,1,2.14,1.49,3.24C190.57,25.27,190.08,24.19,189.57,23.13Z"/>
      <path id="path2456" class="cls-1" d="M188.05,20c.51,1,1,2.06,1.52,3.12C189.07,22.07,188.56,21,188.05,20Z"/>
      <path id="path2454" class="cls-1" d="M183.29,11.46c.54.87,1.07,1.77,1.61,2.7C184.36,13.23,183.83,12.33,183.29,11.46Z"/>
      <path id="path2452" class="cls-1" d="M180.84,7.73c.82,1.17,1.64,2.42,2.45,3.73C182.48,10.15,181.66,8.9,180.84,7.73Z"/>
      <path id="path2450" class="cls-1" d="M177.76,3.65l.63.78c.27.34.55.69.82,1.05-.27-.36-.55-.71-.82-1.05Z"/>
      <path id="path2448" class="cls-1" d="M176.06,1.79c.51.5,1.08,1.12,1.7,1.86C177.14,2.91,176.57,2.29,176.06,1.79Z"/>
      <path id="path2446" class="cls-1" d="M170.23,33.67c.05,4.69.13,8.86.24,11.22.06,1.3.12,2.6.19,3.89-.07-1.29-.13-2.59-.19-3.89C170.36,42.53,170.28,38.36,170.23,33.67Z"/>
      <path id="path2444" class="cls-1" d="M170.2,12.79c0,1.82,0,4.13,0,6.69,0,2.92,0,6.07,0,9.37,0,1.64,0,3.26,0,4.82,0-1.56,0-3.18,0-4.82-.05-3.3-.06-6.45,0-9.37C170.16,16.92,170.17,14.61,170.2,12.79Z"/>
      <path id="path2442" class="cls-1" d="M170.28,9.62c0,.71-.06,1.8-.08,3.17C170.22,11.42,170.25,10.33,170.28,9.62Z"/>
      <path id="path2389" class="cls-1" d="M172.23.43c-.76.7-1.18,2-1.57,5.2a.31.31,0,0,1,0,.09c-.11.94-.22,2-.33,3.32,0,.15,0,.34,0,.58,0-.24,0-.43,0-.58.11-1.31.22-2.38.33-3.32l0-.09c.38-3.25.8-4.5,1.57-5.2Z"/>
      <g id="g2739">
        <path id="path2462" class="cls-1" d="M172.88,29.1v2.61c0,.63,0,1.39,0,2.23l.06,2c.24,8.58,1,23.23,1.45,26.62.07.57.23,2.34.35,4,.29,3.82,1.75,15.2,2.22,17.3.56,2.5.82,2.78,3.34,3.59a18.32,18.32,0,0,1,5,2.31,1.58,1.58,0,0,1,.56.52c.36.46.23.8-.55.91a8.39,8.39,0,0,1-2.57-.45,121,121,0,0,0-14.71-2.82l-1.62-.13c-2.12-.09-4.56-.11-7.79-.11-2.05,0-3.86,0-5.58.08-3.95.17-7.81.48-10.89.92-9.6,1.35-12.67,2-19.72,4.18-1.69.52-2.86.87-3.62,1.15l-.56.24c-1.12.55-.57,1,.67,2.27l.19.2a9.68,9.68,0,0,1,1,1.1c1,1.21,1.38,2,1.14,2.36-.4.65-1.27.32-3-1.16C113,94.58,98.7,86.89,87.47,82.44a212.36,212.36,0,0,0-43.22-12c-4-.67-4-.87-4.24,1.7,0,.93,0,2,0,3.23s0,2.25,0,3.08a24.53,24.53,0,0,0,3.2,10l.7,1.18a5,5,0,0,0,1.18,1.27c.23.14.8.45,1.51.82L54,95.41c5.18,2.59,9.51,4.7,9.6,4.7s1.39.56,2.86,1.25C76.51,106,96,113.17,101.3,114.14c2.14.39,2.56.54,2.62,1.18a.17.17,0,0,1,0,.07v.18c0,.44-.25.68-.77.72-.28,0-.68,0-1.13,0a14.73,14.73,0,0,1-1.56,0c-.88-.05-1.7-.11-2.15-.18-.23,0-.41,0-.56,0-.65.32-1.25,2.49-2.19,7.64a106.17,106.17,0,0,0-1.51,14.53c0,2.86.06,6.32.23,10.57,0,.29,0,.57.09.84.14,1.15.42,5.89.62,10.52.6,13.45,1.35,18.53,3.6,24.29a38,38,0,0,0,3.41,6.74,33.81,33.81,0,0,0,4.32,5.33,40.13,40.13,0,0,0,4.07,3.53,45.62,45.62,0,0,0,6.64,4.07,35.46,35.46,0,0,0,4.65,2,4.61,4.61,0,0,1,2,1,.61.61,0,0,1,.18.43.47.47,0,0,1,0,.17c0,.85-1.26.85-4.43.07-5.52-1.37-13.23-6.6-17.36-11.81l-1.38-1.72c-.13-.1-.25-.13-.34-.08l-.2,1.29c-.14.88-.4,3-.6,4.68-.71,6.24-5.4,22.93-8.72,31-.36.89-.67,1.72-.82,2.16a3.09,3.09,0,0,0-.06.34,3.28,3.28,0,0,0,1.44.63,20.6,20.6,0,0,1,8,4.36c1.54,1.61,1.88,2.54,1.22,2.63a2.21,2.21,0,0,1-1.84-.57c-.35-.18-.73-.39-1.14-.64a21.22,21.22,0,0,0-5-2.46l-.29-.08c-.47-.13-1-.26-1.53-.38-4.84-1.06-9-.36-11.81,1.92-.23.21-.47.43-.73.69s-.41.4-.6.61a8.52,8.52,0,0,0-.57.74c-.58.84-.82,1.21-.8,1.56.06.18.15.4.26.65l.1.16a47.06,47.06,0,0,1,4,8.3c1.4,4,1.53,5.47.47,5.47-.43,0-.93-.66-1.63-2.14-1.7-3.63-4-8-6-11.36a36.41,36.41,0,0,0-3.84-5.7c-.09,0-.15,0-.17.05a57,57,0,0,0,1.86,7.79,6.12,6.12,0,0,1,.43,1.84.83.83,0,0,1-.27.69c-.36.35-.65.19-1.53-.82-1.79-2.07-3.66-8.08-3.66-11.77a3.85,3.85,0,0,0-.25-1.51,1.26,1.26,0,0,0-.22-.33,1.1,1.1,0,0,0-.33-.26.36.36,0,0,0-.16.12,5.55,5.55,0,0,0-.06.93c0,.37,0,.84.1,1.46a37.41,37.41,0,0,0,2,9.28,7.12,7.12,0,0,1,.51,2.66c-.53,1.39-2.34-.34-3.6-3.45-.65-1.61-.7-1.65-.71-.63,0,3,1.76,11.36,4.31,19.84,4.16,13.8,11,26.4,15.64,28.85.54.28.78.38,1,.21a3.28,3.28,0,0,0,.25-.26,4.2,4.2,0,0,0,.27-.39c.53-.8.63-1.92.72-7.87.09-5.2.22-7,.55-7.1,1.14-.44,1.93,1.41,2.25,5.11a36.61,36.61,0,0,1,.3,6.14l-.11,2.88.13.08,1.06.45c2.62,1.1,3.62,1.33,9,1.38l4.22,0a152.5,152.5,0,0,0,16.65-.69c.29,0,2.25-.21,4.35-.35,3.12-.2,3.86-.35,4-.8.16-.64-.11-1.13-4.38-8.1-11.3-18.45-18.49-33.72-21-44.6a37.1,37.1,0,0,1-.83-5.12,24.89,24.89,0,0,1-.22-2.61,2.24,2.24,0,0,1,.09-1.19c0-.16.09-.28.17-.32a.51.51,0,0,1,.34-.08l.1,0c.38-.07.62.15.78.7a1.31,1.31,0,0,1,.18.64s0,.1,0,.16c1.1,4.39,4.13,14.21,5.36,17.3s3.52,8.38,4.9,11.38q.56,1.14,1.14,2.31c.24.4,1,1.75,1.76,3.29.88,1.69,1.87,3.55,2.21,4.11s1.13,2,1.75,3.09,1.4,2.44,1.72,2.91,1,1.56,1.46,2.41,2.35,3.95,4.16,6.9a39.25,39.25,0,0,1,3.18,5.81,1.72,1.72,0,0,1,.12.41V291a10.28,10.28,0,0,1-1,3.13,9,9,0,0,0-.8,2.08A4.11,4.11,0,0,0,130,296l.94-.5c1.2-.69,2-1,2.61-.79a1.47,1.47,0,0,1,1,.87l.16.27.15.31c.17.31.29.53.38.68a.68.68,0,0,0,.41-.05l1.09-.94c.29-.24.58-.46.86-.65l0,0c.16-.11.32-.22.46-.3a1.51,1.51,0,0,1,.44-.24l.06,0,.1,0a1.18,1.18,0,0,1,.63.38,3.13,3.13,0,0,1,.84,1l.2.3c.3.4.59.69.72.7a4,4,0,0,0,.77-.4c.38-.25.87-.59,1.37-1a9.28,9.28,0,0,1,2.29-1.33l.08,0,0,0h.08c.43,0,1.09.59,1.75,1.55.9,1.3,1.27,1.63,2.23.81l.32-.3c.31-.3.67-.67,1.12-1.17a4.34,4.34,0,0,1,2.12-1.52.38.38,0,0,1,.17-.06h.07a4.81,4.81,0,0,1,2.32.51c.39.16.75.3,1,.39a.82.82,0,0,0,.39,0,11.42,11.42,0,0,0-.62-1.29A5,5,0,0,1,156,292l-.39-.58v-.14l-.33-.6-.09-6.86a263.09,263.09,0,0,0-3.27-34.66c-.69-4.19-1.47-8.36-2.33-12.42-.29-1.29-.62-2.72-1-4.47-.34-1.44-.59-2.58-.78-3.51a19.59,19.59,0,0,1-.47-2.31h0c-.09-.39-.06-.62.1-.71s0-.09.06-.11c.43-.44.83-.24,1.47.88a11.54,11.54,0,0,1,.92,1.81v0c1.32,2.85,2.39,6.75,3.54,12.94a29,29,0,0,0,1,4.42c.15.16.37-.46.49-1.38a62,62,0,0,1,3.32-10.86c.39-.78.77-1.18,1.12-1.2s.5-.06.71.27a2,2,0,0,1,0,.46c0,.14,0,.33,0,.53a38.91,38.91,0,0,1-.94,5.19c-3.39,15.27-3.48,16.08-2.62,22.86.91,7.18,1.73,18.43,1.73,23.87,0,4.05.07,4.5.93,6.26.63,1.27,1,1.81,1.42,1.83l.67-.26.26-.18a2,2,0,0,1,1.22-.51l.37-.17,0,0h0l.37.41a6.63,6.63,0,0,1,1.65,1.65c.42.54.83,1,1.15,1.36a2,2,0,0,0,.68.46,2.19,2.19,0,0,0,.17-1c0-1.37.56-2.37,1.33-2.37a11.41,11.41,0,0,1,3,1.53,25.36,25.36,0,0,0,2.56,1.55,4.55,4.55,0,0,0,.17-1.8V294a3.21,3.21,0,0,1,0-.54c0-.81.14-1.06.51-1.15a.71.71,0,0,1,.39-.11s.07,0,.13.08c.36.07.63.39,1,1.07a2.92,2.92,0,0,0,1.65,1.56,4.63,4.63,0,0,0,1.06.26h0a.23.23,0,0,0,.1-.24,7.77,7.77,0,0,0-.57-1.37c-.68-1.32-.7-1.5-.2-2s.66-.43,1.87.75a3.79,3.79,0,0,0,1.59,1.14h0l.21,0,.1,0h0a3.6,3.6,0,0,0,.65,0l1.23-.11,0-.06-.42-.55-.87-1.06a10.19,10.19,0,0,1-1.1-1.59l-.09-.18a1.61,1.61,0,0,1-.19-.59v-.1a9.45,9.45,0,0,1,1.07-2.62,37.22,37.22,0,0,1,2.36-4.57c1.38-1.77,8.26-15.42,10.28-20.41,5.06-12.46,7.13-22.1,8.39-39.1.19-2.49.33-4.17.47-5.34a5.39,5.39,0,0,1,.28-1.61c.24-.82.55-.67,1.08-.13.85.84,1,9,.27,15.66A109.57,109.57,0,0,1,194.7,268.8c-.82,1.82-1.53,3.34-1.92,4-.07.11-.23.4-.33.58-1.34,2.66-2.82,5.42-4.43,8.34-1.84,3.3-3.38,6.19-3.73,7a.66.66,0,0,1,0,.11,1.11,1.11,0,0,0,0,.13,3.09,3.09,0,0,0,.51,1c.4.52,2.38.86,5.36,1,1.39,0,3.17,0,5.59,0,1.64,0,3.26,0,4.84-.05,5-.19,10.71-.61,16.21-1.24,1.87-.23,3.49-.44,4.44-.59s1.31-.46,1.44-1.22a.66.66,0,0,0,0-.14,2.7,2.7,0,0,1,.09-.66c.09-.63.23-.84.65-.89a.68.68,0,0,1,.62,0c.42.09.62.39.83,1.17.45,1.66,1.75,3.55,2.66,4l.19.07.06,0h0c1.22.17,3.12-1.31,5.24-4.1,6.66-8.73,12.15-25.68,13.11-40.21,0-.41,0-.81.05-1.26l.13-4.34c0-.09,0-.13,0-.2l-.06-.27-.41,2.29a28.19,28.19,0,0,1-1.32,5.81,6,6,0,0,1-.71,1.57c-.3.51-.6.8-.88.8a.31.31,0,0,1-.28-.16c-.2,0-.32-.07-.34-.5a14.6,14.6,0,0,1,.11-2.17c.07-.84.15-1.66.22-2.35.08-1.16.19-2.34.3-3.16.39-2.93.44-9.13.09-9.31a.67.67,0,0,0-.46.27c-.39.56-.66,1.94-.82,4.19a42.32,42.32,0,0,1-1.94,10.46c-.07.2-.14.39-.22.57h0c-.42,1-.87,1.64-1.28,1.64h0c-.33,0-.54-.09-.64-.39-.2-.5-.1-1.58.25-3.76.29-1.78.61-4.69.72-6.49l.18-3a1.58,1.58,0,0,0-.28.32l-1.09,2.15a137.85,137.85,0,0,0-9.24,25.9c-1.07,4.33-1.32,5-1.92,5h0a.59.59,0,0,1-.36-.09.19.19,0,0,1-.07-.06,1.06,1.06,0,0,1-.22-.55,6.81,6.81,0,0,1-.12-2.31c.08-3.75,1.6-9.53,4.65-17.72l1.37-3.66c.07-.49-.22-.89-1.25-2l-2.4-2.28c-4.35-4.16-7.56-6.05-11-6.27h-.69c-.32,0-.64,0-1,0s-.84.09-1.28.17a17.92,17.92,0,0,0-6.47,2.62c-.54.49-.65.54-1,.09a.39.39,0,0,1-.23-.32c-.34-.53-.15-.8,1.41-2.29l.18-.17,0,0,0,0a11,11,0,0,1,6.27-2.81c.71-.12,1.29-.37,1.29-.56a56.35,56.35,0,0,0-2.52-5.21c-5.41-10.49-8.23-18.79-9.17-27a25,25,0,0,0-.62-3.84c-.12-.13-1.53.85-3.13,2.18s-3.53,2.82-4.29,3.32-1.95,1.35-2.65,1.89a51,51,0,0,1-10.19,5.39c-2,.69-2.5.75-2.75.35a1,1,0,0,1-.12-.33c-.09-.15-.13-.28-.08-.36l.06-.06c0-.35.22-.65.49-.65a104.94,104.94,0,0,0,9.41-5.6,112.76,112.76,0,0,0,14.67-11.89c1.22-1.23,2.42-2.51,3.53-3.74,1.73-2,3.93-4.86,5.22-6.66.33-.49.65-1,.95-1.44a1.47,1.47,0,0,0,.09-.17,8.19,8.19,0,0,1,.8-1.41l.55-.79a.37.37,0,0,1,.05-.11l-1.67-.2a12.28,12.28,0,0,1-7.09-3.8,14.28,14.28,0,0,1-3.56-10V162a1.34,1.34,0,0,1,0-.2v-.33a13,13,0,0,1,2.35-7.73,10.16,10.16,0,0,1,.93-1.13l0,0,.09-.09a10.24,10.24,0,0,1,8-3.5,6,6,0,0,0,1.94-.22.14.14,0,0,0,0-.06c0-.18-.41-1.28-.88-2.54a113.45,113.45,0,0,1-5.28-18A130.16,130.16,0,0,0,207.3,115a57.62,57.62,0,0,0-5.42-11.53,13.35,13.35,0,0,1-1.21-1.85A27.47,27.47,0,0,0,198.78,99c-1.24-1.61-1.83-2.62-1.85-3.17-.05-.36.11-.54.49-.54h.3c.6,0,1.52.75,3.28,2.65l2.44,2.65-.05-4.18-.08-3.18c0-.93-.07-1.85-.11-2.78A225.08,225.08,0,0,0,199.94,63c-.08-.43-.17-.85-.25-1.28-1-4.79-3.43-13.86-5.15-19.18-1.86-5.74-1.88-5.77-5.91-8.5a25.67,25.67,0,0,0-13.26-4.88l-1.23-.1Zm21.25,90.42h0a11.58,11.58,0,0,1,10.26,7,12.7,12.7,0,0,1,0,9.65,12,12,0,0,1-5.57,5.52,12.24,12.24,0,0,1-7.44.54,12,12,0,0,1-7.55-15.81,11,11,0,0,1,5.4-5.73,10.8,10.8,0,0,1,4.93-1.13Zm-189.84.93c-.57,0-.91,0-1,.13-.18.3,1,3.77,4.1,11.6,1.85,4.75,3,7.45,6.79,16.12,2.77,6.32,8.85,18.64,10.66,21.62a25.74,25.74,0,0,1,1.52,2.72.85.85,0,0,0,.07.15c.39.66.72,1.2,1,1.61l.24.36.61.93.56.82,2.9,0,2.19-.1c5.19-.25,23.39.26,34.28,1l1,.07c4,.2,5.11.32,5.5.73a.76.76,0,0,1,.18.18c.28.44-.05,1.94-1.4,6.35C70,196,66.06,209.92,65.19,213.64a3,3,0,0,0-.12,1c.2.13,1.61.67,3.28,1.25,10.75,3.74,17.18,6.22,18.62,7.16a1.1,1.1,0,0,1,.23.21l.45.2.28.9a6.31,6.31,0,0,1,.39.93,4.61,4.61,0,0,0,.81,1.73,19.74,19.74,0,0,0,1.52-3.69c1.28-3.67,2.41-7.64,2.23-7.83s-3-1.5-6.59-3.22-6.57-3.19-6.65-3.27c-.45-.45,0-2,1-3.64.65-1,1.29-2.08,1.41-2.37.26-.57,2.54-3.84,6.42-9.21,1.42-2,2.8-3.89,3.09-4.3s1.25-1.77,2.16-3L95,184.71a2.8,2.8,0,0,0,.35-.68l-.64-2.18a69.17,69.17,0,0,1-2.43-16.57c0-1.41-.18-5.27-.36-8.57s-.44-7.91-.57-10.23l-.21-3.93,0-.3-1.95-1c-1.07-.54-3.86-1.78-6.2-2.75a237.53,237.53,0,0,0-56.22-15.91,218,218,0,0,0-21.83-2.16Zm122.21,2.81h0c.23,0,.46,0,.69,0a8.55,8.55,0,0,1,4.27.91,11.94,11.94,0,0,1,4.33,3.57,9.1,9.1,0,0,1,1.05,1.62l.3.58a8.86,8.86,0,0,1,.88,4.8,8.82,8.82,0,0,1-1,4.93,12.69,12.69,0,0,1-5.81,5.58,12.89,12.89,0,0,1-9.27,0,12.12,12.12,0,0,1-6.26-6.78,5.29,5.29,0,0,1-.27-.86,10.72,10.72,0,0,1,0-5.81,11.5,11.5,0,0,1,6.36-7.63,8.53,8.53,0,0,1,4.64-.92Zm43,14.34h0c1.29.05,2,.44,2,1.13a5.05,5.05,0,0,1-1.79,3,2.82,2.82,0,0,1-.8.42l-.12,0h-.08l-.16,0a3.58,3.58,0,0,1-1.71-.51,4.8,4.8,0,0,1-1.65-1.51c-.35-.61-.47-.85-.34-1.12a.09.09,0,0,1,0,0,1.06,1.06,0,0,1,.4-.46h0a4.87,4.87,0,0,1,2.72-.9,10,10,0,0,1,1.48-.08Zm-.36,9.09h0a5,5,0,0,1,1.15.14,68,68,0,0,1,7,2.92,34.76,34.76,0,0,0,6.81,2.65,10.85,10.85,0,0,0,2.61,0,12.29,12.29,0,0,0,2-.63c2.61-1.05,2.57-1,2.81-.4s-1,2.16-2.63,3c-.94.47-1.39.72-1.65,1.2a8.2,8.2,0,0,0-.34,1.4c0,.26-.07.56-.1.9a77.15,77.15,0,0,1-3.11,12.91c-2.82,9.23-6.64,16.9-10.45,21s-7.43,5.25-11.55,3.66a11,11,0,0,1-1.11-.51,6,6,0,0,1-1-.61c-7.2-4.75-13.87-19-15.84-34.53a12.44,12.44,0,0,0-.53-2.64s0,0,0-.06-.07-.16-.1-.23l0,0a.84.84,0,0,0-.26-.29,15.36,15.36,0,0,1-1.36-1.08h0l-.57-.5c-1-.87-1.27-1.37-1.14-1.8a0,0,0,0,1,0,0h0a.35.35,0,0,1,.06-.14.4.4,0,0,1,.46-.3,2.92,2.92,0,0,1,.57.12h0l.15.05c.53.16,1.3.45,2.5.91a12.31,12.31,0,0,0,4.83.88c3,0,4.48-.55,12.14-4.54l.65-.33.89-.46c3.82-1.95,5.65-2.64,7.14-2.63Zm-57.71,8.44a13.52,13.52,0,0,1,7.13,2.16,12.22,12.22,0,0,1,3.77,3.46,12.82,12.82,0,0,1,1.43,2.39,7.82,7.82,0,0,1,.83,2.86,13.65,13.65,0,0,1,.07,5.21,7.54,7.54,0,0,1-1.12,3.76,13.72,13.72,0,0,1-11.36,7.57,12.33,12.33,0,0,1-3.09-.14,15.26,15.26,0,0,1-4.41-1.56,6.59,6.59,0,0,1-1-.52c-.18-.14-.36-.3-.54-.45A13.3,13.3,0,0,1,99,174.75l0-.08a8.64,8.64,0,0,1-.75-2c-.18-.58-.33-1.17-.46-1.79a8.77,8.77,0,0,1,0-4,14,14,0,0,1,11.61-11.54,10.8,10.8,0,0,1,2.12-.2Z"/>
        <path id="path2510" class="cls-2" d="M215.33,151.82a10,10,0,0,0-3.86.74,9.29,9.29,0,0,0-4.64,5.11,15.21,15.21,0,0,0,.11,9.17,15,15,0,0,0,.62,1.41,11.44,11.44,0,0,0,4.26,4.38,7.54,7.54,0,0,0,5.11.15c1.6-.73,3.16-7.32,2.8-11.82-.3-3.76-1.36-8.05-2.12-8.61A4.21,4.21,0,0,0,215.33,151.82ZM111.49,157.7a8.82,8.82,0,0,0-1.7.16,11.25,11.25,0,0,0-9.35,9.29,7.14,7.14,0,0,0,0,3.25,12.63,12.63,0,0,0,.37,1.44,7.09,7.09,0,0,0,.6,1.59l0,.07a10.69,10.69,0,0,0,3.33,4.11l.43.36a5.76,5.76,0,0,0,.81.43,12.4,12.4,0,0,0,3.56,1.25,9.84,9.84,0,0,0,2.48.12,11,11,0,0,0,9.15-6.1,6.06,6.06,0,0,0,.9-3,10.81,10.81,0,0,0-.06-4.2,6.28,6.28,0,0,0-.66-2.31,11.13,11.13,0,0,0-1.15-1.91,9.75,9.75,0,0,0-3-2.79,10.83,10.83,0,0,0-5.74-1.74Z"/>
        <path id="path2498" class="cls-3" d="M192.16,122.75a4.12,4.12,0,0,0-3.84,3.93v.06a4.7,4.7,0,0,0,1,2.53l.05.06.31.32a7.76,7.76,0,0,0,.64.56,4.44,4.44,0,0,0,4.23-.28,3.78,3.78,0,0,0,1.23-4.53,4.63,4.63,0,0,0-3.59-2.65ZM127,126.19h-.31a3.86,3.86,0,0,0-3.08,5.7,5.24,5.24,0,0,0,1.37,1.59,3.88,3.88,0,0,0,4.63-.38,3.16,3.16,0,0,0,1.32-2.73c0-.25,0-.45.05-.64a4.89,4.89,0,0,0-.38-1.58,7.32,7.32,0,0,0-.71-.77,4.42,4.42,0,0,0-1.23-1,5,5,0,0,0-1.66-.23Z"/>
        <path id="path2720" class="cls-4" d="M164.62,163.89c-5.69.05-10.71,3.39-15.4,8.4,2.8,9.11,6.92,16.43,11.24,19.58a5.71,5.71,0,0,0,.93.61,10.64,10.64,0,0,0,1,.51c3.73,1.59,7,.43,10.47-3.66,2.95-3.51,5.9-9.63,8.3-17.08C175,166.28,169.57,163.84,164.62,163.89Z"/>
      </g>
    </g>
  </g>
</svg>
