<svg id="Pokéball_copy_2" data-name="Pokéball copy 2" xmlns="http://www.w3.org/2000/svg" width="511.5" height="511.4" viewBox="0 0 511.5 511.4">
  <defs>
    <style>
      .cls-1 {
        fill: #ff1c1c;
      }

      .cls-2 {
        fill: #dfdfdf;
      }

      .cls-3 {
        fill: #fff;
      }

      .cls-4 {
        fill: #df1818;
      }

      .cls-5 {
        fill: #dd4ae4;
      }

      .cls-6 {
        fill: #ff4ae4;
      }
    </style>
  </defs>
  <title>pokeballleft</title>
  <g id="Pokéball">
    <g>
      <path d="M39.54,235.81c-.09.86-.17,1.73-.24,2.59C39.37,237.54,39.45,236.67,39.54,235.81Z"/>
      <path d="M39.2,238.5H173.6s0-.07,0-.1H39.3c.07-.86.15-1.73.24-2.59.06-.62.12-1.25.19-1.87s.16-1.49.25-2.23.17-1.47.27-2.21.18-1.47.29-2.21A214.3,214.3,0,0,1,66.78,150.1,214.72,214.72,0,0,0,39.2,238.5Z"/>
      <path class="cls-1" d="M40,231.71c-.09.74-.18,1.48-.25,2.23C39.81,233.19,39.89,232.45,40,231.71Z"/>
      <path class="cls-1" d="M40.25,229.5c-.1.74-.19,1.47-.27,2.21Z"/>
      <path class="cls-1" d="M40.54,227.29c-.11.74-.2,1.47-.29,2.21C40.34,228.76,40.44,228,40.54,227.29Z"/>
      <path d="M95.11,273.1a.34.34,0,0,1,0-.1h-53s0,.07,0,.1Z"/>
      <path class="cls-2" d="M42.9,280.73c.08.63.15,1.26.24,1.89Q43,281.68,42.9,280.73Z"/>
      <path class="cls-3" d="M43.14,282.62c0,.43.11.87.17,1.3C43.25,283.49,43.19,283.06,43.14,282.62Z"/>
      <path class="cls-2" d="M44,288.82l.33,2.05C44.26,290.18,44.14,289.5,44,288.82Z"/>
      <path class="cls-3" d="M44.67,292.54q.18,1.06.39,2.13Q44.85,293.6,44.67,292.54Z"/>
      <path class="cls-3" d="M47.93,307.66c.14.59.29,1.17.45,1.75C48.22,308.83,48.07,308.25,47.93,307.66Z"/>
      <path class="cls-2" d="M48.74,310.77c.19.73.39,1.46.6,2.18Z"/>
      <path class="cls-2" d="M49.51,313.55c.42,1.5.87,3,1.33,4.48C50.38,316.54,49.94,315.05,49.51,313.55Z"/>
      <path class="cls-2" d="M50.84,318q.36,1.2.75,2.4C51.34,319.63,51.08,318.83,50.84,318Z"/>
      <path class="cls-2" d="M52.37,322.81q.36,1.1.75,2.19C52.86,324.27,52.62,323.54,52.37,322.81Z"/>
      <path class="cls-2" d="M207.54,464.45C145,430.21,100.43,358.14,95.11,273.1h-53q.33,3.84.79,7.63.1.94.24,1.89c0,.44.11.87.17,1.3.22,1.64.47,3.28.73,4.9.1.68.22,1.36.33,2.05l.3,1.67q.18,1.06.39,2.13,1.23,6.57,2.87,13c.14.59.29,1.17.45,1.75l.36,1.36.6,2.18c.06.2.11.4.17.6.43,1.5.87,3,1.33,4.48.24.8.5,1.6.75,2.4s.51,1.59.78,2.38.49,1.46.75,2.19c.08.26.17.51.26.76q2,5.63,4.24,11.1A216.3,216.3,0,0,0,207.54,464.45Z"/>
      <path class="cls-2" d="M53.38,325.76q2,5.63,4.24,11.1Q55.36,331.39,53.38,325.76Z"/>
      <path d="M69.28,145.84c-.84,1.4-1.67,2.8-2.47,4.22C67.62,148.64,68.44,147.24,69.28,145.84Z"/>
      <path d="M74.56,137.51c-1.81,2.72-3.57,5.49-5.25,8.29Q71.85,141.6,74.56,137.51Z"/>
      <path class="cls-1" d="M146.72,69.91c-.68.38-1.35.77-2,1.18-.89.52-1.77,1-2.65,1.58-.54.33-1.07.65-1.6,1q-1.69,1.05-3.36,2.13c-.7.45-1.39.9-2.07,1.36-1.36.91-2.72,1.83-4.06,2.76s-2.69,1.9-4,2.87-2.63,2-3.93,2.94h0a215.86,215.86,0,0,0-20.35,17.73c-1.15,1.15-2.3,2.3-3.44,3.47a216.84,216.84,0,0,0-24.66,30.58q-2.72,4.08-5.25,8.29l0,0c-.84,1.4-1.66,2.8-2.47,4.22l0,0a214.3,214.3,0,0,0-26.24,77.19A216.18,216.18,0,0,1,146.72,69.91Z"/>
      <path class="cls-1" d="M149.25,68.48c-.54.29-1.08.6-1.62.9,0,0,0,0,0,0l-.23.14Z"/>
      <path class="cls-1" d="M151.12,67.45c-.63.33-1.25.67-1.87,1Z"/>
      <path class="cls-1" d="M151.12,67.45l1.76-1C152.29,66.8,151.7,67.12,151.12,67.45Z"/>
      <path class="cls-1" d="M156.8,64.46c-.89.44-1.78.9-2.66,1.36,0,0,0,0,0,0-.34.17-.67.35-1,.54C154.34,65.72,155.57,65.08,156.8,64.46Z"/>
      <path class="cls-1" d="M156.8,64.46q2.87-1.45,5.78-2.83c-1.35.63-2.7,1.28-4,1.94C158,63.86,157.38,64.15,156.8,64.46Z"/>
      <path class="cls-1" d="M166,60.08c-.48.21-.95.42-1.42.65Z"/>
      <path class="cls-4" d="M166.48,59.84l1.07-.47-1,.42Z"/>
      <path class="cls-4" d="M169.37,58.58l-.92.39-.9.4Z"/>
      <path class="cls-1" d="M172.42,57.3l-.29.11-1.7.72Z"/>
      <path class="cls-1" d="M181.46,53.82l-.71.26Z"/>
      <path class="cls-4" d="M191,50.66l-.21.06-2.17.69C189.37,51.15,190.17,50.91,191,50.66Z"/>
      <path d="M187.28,51.83l1.3-.42,2.17-.69C189.59,51.08,188.43,51.45,187.28,51.83Z"/>
      <path class="cls-4" d="M192.84,50.1l-1.8.53-.08,0Z"/>
      <path d="M191,50.63l1.8-.53.55-.17Z"/>
      <path d="M193.4,49.93c.18,0,.36-.11.54-.15l1.77-.52Z"/>
      <path class="cls-4" d="M196.13,49.15l-.42.11-1.77.52Z"/>
      <path class="cls-4" d="M196.13,49.15l2.12-.58C197.54,48.75,196.83,49,196.13,49.15Z"/>
      <path d="M200.24,48c-.67.17-1.33.34-2,.53Z"/>
      <path class="cls-2" d="M57.62,336.86A216.34,216.34,0,0,0,207.8,464.6l-.26-.15A216.3,216.3,0,0,1,57.62,336.86Z"/>
      <path class="cls-5" d="M95.1,238.4c5.4-86,50.89-158.88,114.67-192.58-2.86.59-5.7,1.25-8.52,2l-1,.26-2,.53-2.12.58-2.19.63c-.18,0-.36.1-.54.15h0l-.55.17-1.88.56c-.79.25-1.59.49-2.38.75l-1.3.42c-.34.1-.67.21-1,.33l-1.65.56c-1.06.35-2.12.72-3.16,1.1l-.71.26c-.87.31-1.73.63-2.59,1-.58.21-1.16.44-1.73.66-1.35.51-2.68,1-4,1.6l-2,.83-1.06.45-1.82.79-1.07.47a5.05,5.05,0,0,0-.53.24l-1.42.65q-1,.44-1.95.9-2.91,1.38-5.78,2.83c-1.23.62-2.46,1.26-3.68,1.91l-.12.06-.12.07-1.76,1-1.87,1-1.86,1-.67.38A216.18,216.18,0,0,0,40.54,227.29c-.1.74-.2,1.47-.29,2.21L40,231.71c-.09.74-.17,1.48-.25,2.23s-.13,1.25-.19,1.87c-.09.86-.17,1.73-.24,2.59Z"/>
      <path d="M207.2,246.79q.3-1.62.69-3.21a52.94,52.94,0,0,0-1.59,12.12h.1A50.22,50.22,0,0,1,207.2,246.79Z"/>
      <path d="M206.76,262.46A47.73,47.73,0,0,0,209.4,273,49.61,49.61,0,0,1,206.76,262.46Z"/>
      <path d="M201.25,47.78c2.82-.71,5.66-1.37,8.52-2l0,0Q205.5,46.7,201.25,47.78Z"/>
      <path d="M210.19,236.65A49.59,49.59,0,0,1,248,206.91,49.35,49.35,0,0,0,210.19,236.65Z"/>
      <path d="M253.82,206.34a50.36,50.36,0,0,0-5.81.57A50.36,50.36,0,0,1,253.82,206.34Z"/>
      <path d="M257.68,305.06a50.36,50.36,0,0,0,5.81-.57A50.36,50.36,0,0,1,257.68,305.06Z"/>
      <path d="M295.67,45.14l2.5.5C297.34,45.46,296.5,45.3,295.67,45.14Z"/>
      <path d="M301.31,274.75a49.59,49.59,0,0,1-37.82,29.74A49.35,49.35,0,0,0,301.31,274.75Z"/>
      <path class="cls-3" d="M302,273a49.26,49.26,0,0,0,2.3-8.39,50.22,50.22,0,0,0,.8-8.91h.1a49.6,49.6,0,0,0-3.1-17.3c-.22-.59-.45-1.17-.69-1.75a49.59,49.59,0,0,0-37.82-29.74,50.36,50.36,0,0,0-5.81-.57c-.66,0-1.32,0-2,0s-1.32,0-2,0a50.36,50.36,0,0,0-5.81.57,49.59,49.59,0,0,0-37.82,29.74c-.24.58-.47,1.16-.69,1.75a52.74,52.74,0,0,0-1.61,5.18q-.39,1.59-.69,3.21a50.22,50.22,0,0,0-.8,8.91h-.1a50.16,50.16,0,0,0,.46,6.76A49.61,49.61,0,0,0,209.4,273c.22.59.45,1.17.69,1.75a49.59,49.59,0,0,0,37.82,29.74,50.36,50.36,0,0,0,5.81.57c.66,0,1.32,0,2,0s1.32,0,2,0a50.36,50.36,0,0,0,5.81-.57,49.59,49.59,0,0,0,37.82-29.74C301.55,274.17,301.78,273.59,302,273Z"/>
      <path d="M255.7,171.9a83.89,83.89,0,0,1,82.1,66.5h.1a83.86,83.86,0,0,0-138.07-45.16A83.53,83.53,0,0,1,255.7,171.9Z"/>
      <path d="M455.8,179.17A216.16,216.16,0,0,0,298.17,45.64,216.32,216.32,0,0,1,455.8,179.17Z"/>
      <path d="M457.55,183.85q1.27,3.54,2.43,7.12Q458.82,187.39,457.55,183.85Z"/>
      <path d="M461.46,195.78c-.47-1.61-1-3.21-1.48-4.81Q460.75,193.37,461.46,195.78Z"/>
      <path d="M463.48,203.08q-.63-2.45-1.32-4.88Q462.85,200.63,463.48,203.08Z"/>
      <path d="M304.3,264.61A49.26,49.26,0,0,1,302,273c-.22.59-.45,1.17-.69,1.75a49.35,49.35,0,0,1-37.82,29.74,50.36,50.36,0,0,1-5.81.57c-.66,0-1.32,0-2,0s-1.32,0-2,0a50.36,50.36,0,0,1-5.81-.57,49.35,49.35,0,0,1-37.82-29.74c-.24-.58-.47-1.16-.69-1.75a47.73,47.73,0,0,1-2.64-10.54,50.16,50.16,0,0,1-.46-6.76,51.72,51.72,0,0,1,3.2-17.3c.22-.59.45-1.17.69-1.75A49.35,49.35,0,0,1,248,206.91a50.36,50.36,0,0,1,5.81-.57c.66,0,1.32,0,2,0s1.32,0,2,0a50.36,50.36,0,0,1,5.81.57,49.35,49.35,0,0,1,37.82,29.74c.24.58.47,1.16.69,1.75a49.6,49.6,0,0,1,3.1,17.3h-.1A50.22,50.22,0,0,1,304.3,264.61ZM255.8,511.4c141.2,0,255.7-114.5,255.7-255.7S397,0,255.8,0,0,114.4,0,255.7,114.6,511.4,255.8,511.4ZM465.78,213c.35,1.66.67,3.33,1,5q1.85,10.05,2.74,20.42H337.8a83.89,83.89,0,0,0-138-45.16,79.78,79.78,0,0,0-6.12,6.08,83.74,83.74,0,0,0-20,39.08h-.08s0,.07,0,.1H39.2a214.72,214.72,0,0,1,27.58-88.4l0,0c.8-1.42,1.63-2.82,2.47-4.22l0,0c1.68-2.8,3.44-5.57,5.25-8.29a216.84,216.84,0,0,1,24.66-30.58c1.14-1.17,2.28-2.33,3.44-3.47A215.68,215.68,0,0,1,123,85.73h0q2-1.5,3.93-2.94t4-2.87q2-1.41,4.06-2.76c.68-.46,1.37-.91,2.07-1.36q1.66-1.08,3.36-2.13c.53-.34,1.06-.66,1.6-1,.88-.54,1.76-1.07,2.65-1.58.67-.41,1.34-.8,2-1.18l.9-.52s0,0,0,0c1.77-1,3.56-2,5.37-2.95.37-.21.75-.41,1.13-.6,0,0,0,0,0,0q2.19-1.16,4.41-2.25c1.33-.66,2.68-1.31,4-1.94q1-.47,1.95-.9c.47-.23.94-.44,1.42-.65a5.05,5.05,0,0,1,.53-.24l.1-.05,1.87-.82c1.22-.53,2.45-1,3.68-1.56l.29-.11c1.33-.55,2.66-1.09,4-1.6.57-.23,1.15-.45,1.73-.66.86-.33,1.72-.65,2.59-1l.71-.26c1-.38,2.1-.75,3.16-1.1l1.65-.56c.34-.12.67-.23,1-.33,1.15-.38,2.31-.75,3.47-1.11l.21-.06.08,0,2.35-.7h0l2.31-.67.42-.11c.7-.2,1.41-.4,2.12-.58s1.32-.36,2-.53l1-.26q4.25-1.08,8.55-2l0,0a218,218,0,0,1,85.9-.68c.83.16,1.67.32,2.5.5A216.16,216.16,0,0,1,455.8,179.17q.9,2.33,1.75,4.68,1.27,3.54,2.43,7.12c.51,1.6,1,3.2,1.48,4.81.24.8.47,1.61.7,2.42q.69,2.43,1.32,4.88Q464.74,208,465.78,213Zm6.52,60s0,.07,0,.1h0c-9.4,110.5-102.1,197.2-215.1,197.2S51.5,383.5,42,273.1h.11s0-.07,0-.1H173.7a83.9,83.9,0,0,0,164.2,0Z"/>
      <path d="M466.76,218c-.31-1.68-.63-3.35-1-5C466.13,214.63,466.45,216.3,466.76,218Z"/>
      <path class="cls-6" d="M469.5,238.4Q468.62,228,466.76,218c-.31-1.68-.63-3.35-1-5q-1-5-2.3-9.89-.63-2.45-1.32-4.88c-.23-.81-.46-1.62-.7-2.42q-.72-2.42-1.48-4.81-1.16-3.58-2.43-7.12-.85-2.35-1.75-4.68A216.32,216.32,0,0,0,298.17,45.64l-2.5-.5a218,218,0,0,0-85.9.68C146,79.52,100.5,152.41,95.1,238.4h78.52a83.68,83.68,0,0,1,20.09-39.08,79.78,79.78,0,0,1,6.12-6.08A83.86,83.86,0,0,1,337.9,238.4Z"/>
      <path class="cls-3" d="M257.2,470.2c112.87,0,205.54-86.65,215.09-197.1H337.9a83.9,83.9,0,0,1-164.2,0H95.11c5.32,85,49.89,157.11,112.43,191.35A216.18,216.18,0,0,0,257.2,470.2Z"/>
      <path d="M472.29,273.1s0-.07,0-.1H337.9a83.9,83.9,0,0,1-164.2,0H95.1a.34.34,0,0,0,0,.1H173.7a83.9,83.9,0,0,0,164.2,0Z"/>
    </g>
  </g>
</svg>
