<svg id="Pokéball_copy" data-name="Pokéball copy" xmlns="http://www.w3.org/2000/svg" width="511.5" height="511.4" viewBox="0 0 511.5 511.4">
  <defs>
    <style>
      .cls-1 {
        fill: #dd4ae4;
      }

      .cls-2 {
        fill: #ff1c1c;
      }

      .cls-3 {
        fill: #dfdfdf;
      }

      .cls-4 {
        fill: #fff;
      }

      .cls-5 {
        fill: #df1818;
      }

      .cls-6 {
        fill: #ff4ae4;
      }
    </style>
  </defs>
  <title>pokeballright</title>
  <g id="Pokéball">
    <g>
      <path d="M472.2,238.4c-.07-.86-.15-1.73-.24-2.59-.06-.62-.12-1.25-.19-1.87s-.16-1.49-.25-2.23-.17-1.47-.27-2.21-.18-1.47-.29-2.21a214.3,214.3,0,0,0-26.24-77.19,214.72,214.72,0,0,1,27.58,88.4H337.9s0-.07,0-.1H472.2Z"/>
      <path d="M472,235.81c.09.86.17,1.73.24,2.59C472.13,237.54,472.05,236.67,472,235.81Z"/>
      <path class="cls-1" d="M472,235.81c.09.86.17,1.73.24,2.59H416.4c-5.4-86-50.89-158.88-114.67-192.58,2.86.59,5.7,1.25,8.52,2l1,.26,2,.53,2.12.58q1.1.3,2.19.63l.54.15h0l.55.17,1.88.56c.79.25,1.59.49,2.38.75l1.3.42c.34.1.67.21,1,.33l1.65.56c1.06.35,2.12.72,3.16,1.1l.71.26c.87.31,1.73.63,2.59,1,.58.21,1.16.44,1.73.66,1.35.51,2.68,1,4,1.6l2,.83,1.06.45,1.82.79,1.07.47a5.05,5.05,0,0,1,.53.24l1.42.65q1,.44,1.95.9,2.91,1.38,5.78,2.83c1.23.62,2.46,1.26,3.68,1.91l.12.06.12.07,1.76,1,1.87,1,1.86,1,.67.38A216.18,216.18,0,0,1,471,227.29c.1.74.2,1.47.29,2.21l.27,2.21c.09.74.17,1.48.25,2.23S471.9,235.19,472,235.81Z"/>
      <path class="cls-2" d="M471.77,233.94c-.08-.75-.16-1.49-.25-2.23C471.61,232.45,471.7,233.19,471.77,233.94Z"/>
      <path class="cls-2" d="M471.52,231.71l-.27-2.21C471.35,230.24,471.44,231,471.52,231.71Z"/>
      <path class="cls-2" d="M471.25,229.5c-.09-.74-.19-1.47-.29-2.21C471.07,228,471.16,228.76,471.25,229.5Z"/>
      <path d="M469.4,273s0,.07,0,.1h-53a.34.34,0,0,0,0-.1Z"/>
      <path class="cls-3" d="M469.39,273.1q-.33,3.84-.79,7.63-.11.94-.24,1.89c-.05.44-.11.87-.17,1.3-.22,1.64-.47,3.28-.73,4.9-.1.68-.22,1.36-.33,2.05l-.3,1.67q-.18,1.06-.39,2.13-1.23,6.57-2.87,13c-.14.59-.29,1.17-.45,1.75l-.36,1.36-.6,2.18c-.06.2-.11.4-.17.6-.43,1.5-.87,3-1.33,4.48-.24.8-.5,1.6-.75,2.4s-.51,1.59-.78,2.38-.49,1.46-.75,2.19c-.08.26-.17.51-.26.76q-2,5.63-4.24,11.1A216.3,216.3,0,0,1,304,464.45C366.5,430.21,411.07,358.14,416.39,273.1Z"/>
      <path class="cls-3" d="M468.36,282.62q.13-.94.24-1.89C468.52,281.36,468.45,282,468.36,282.62Z"/>
      <path class="cls-4" d="M468.19,283.92c.06-.43.12-.86.17-1.3C468.31,283.05,468.25,283.49,468.19,283.92Z"/>
      <path class="cls-3" d="M467.13,290.87c.11-.69.23-1.37.33-2.05Z"/>
      <path class="cls-4" d="M466.44,294.67q.21-1.07.39-2.13Q466.65,293.61,466.44,294.67Z"/>
      <path class="cls-4" d="M463.12,309.41c.16-.58.31-1.16.45-1.75C463.43,308.25,463.28,308.83,463.12,309.41Z"/>
      <path class="cls-3" d="M462.16,313l.6-2.18C462.57,311.5,462.37,312.23,462.16,313Z"/>
      <path class="cls-3" d="M460.66,318c.46-1.49.9-3,1.33-4.48C461.57,315.05,461.12,316.54,460.66,318Z"/>
      <path class="cls-3" d="M459.91,320.43c.25-.8.51-1.6.75-2.4Q460.3,319.23,459.91,320.43Z"/>
      <path class="cls-3" d="M458.38,325c.26-.73.5-1.46.75-2.19Q458.77,323.91,458.38,325Z"/>
      <path class="cls-3" d="M453.88,336.86q2.26-5.48,4.24-11.1Q456.16,331.39,453.88,336.86Z"/>
      <path d="M442.22,145.84c.84,1.4,1.67,2.8,2.47,4.22C443.88,148.64,443.06,147.24,442.22,145.84Z"/>
      <path d="M436.94,137.51c1.81,2.72,3.57,5.49,5.25,8.29Q439.66,141.6,436.94,137.51Z"/>
      <path class="cls-4" d="M337.8,273.1h78.59c-5.32,85-49.89,157.11-112.43,191.35a216.18,216.18,0,0,1-49.66,5.75c-112.87,0-205.54-86.65-215.09-197.1H173.6a83.9,83.9,0,0,0,164.2,0Z"/>
      <path class="cls-2" d="M471,227.29A216.18,216.18,0,0,0,364.78,69.91c.68.38,1.35.77,2,1.18.89.52,1.77,1,2.65,1.58.54.33,1.07.65,1.6,1q1.69,1.05,3.36,2.13c.7.45,1.39.9,2.07,1.36,1.36.91,2.72,1.83,4.06,2.76s2.69,1.9,4,2.87,2.63,2,3.93,2.94h0a215.86,215.86,0,0,1,20.35,17.73c1.15,1.15,2.3,2.3,3.44,3.47a216.84,216.84,0,0,1,24.66,30.58q2.71,4.08,5.25,8.29l0,0c.84,1.4,1.66,2.8,2.47,4.22l0,0A214.3,214.3,0,0,1,471,227.29Z"/>
      <path class="cls-3" d="M453.88,336.86A216.34,216.34,0,0,1,303.7,464.6l.26-.15A216.3,216.3,0,0,0,453.88,336.86Z"/>
      <path class="cls-2" d="M363.88,69.39l.23.14-1.86-1c.54.29,1.08.6,1.62.9C363.88,69.38,363.88,69.38,363.88,69.39Z"/>
      <path class="cls-2" d="M362.25,68.48l-1.87-1C361,67.78,361.63,68.12,362.25,68.48Z"/>
      <path class="cls-2" d="M360.38,67.45l-1.76-1C359.21,66.8,359.8,67.12,360.38,67.45Z"/>
      <path class="cls-2" d="M357.37,65.83c.34.17.67.35,1,.54-1.22-.65-2.45-1.29-3.68-1.91.89.44,1.78.9,2.66,1.36C357.37,65.82,357.37,65.82,357.37,65.83Z"/>
      <path class="cls-2" d="M353,63.57c.59.29,1.17.58,1.75.89q-2.86-1.45-5.78-2.83C350.27,62.26,351.62,62.91,353,63.57Z"/>
      <path class="cls-2" d="M347,60.73l-1.42-.65C346,60.29,346.5,60.5,347,60.73Z"/>
      <path class="cls-5" d="M345,59.84,344,59.37l1,.42Z"/>
      <path class="cls-5" d="M344,59.37l-1.82-.79.92.39Z"/>
      <path class="cls-2" d="M339.37,57.41l1.7.72-2-.83Z"/>
      <path class="cls-2" d="M330,53.82l.71.26Z"/>
      <path d="M324.22,51.83l-1.3-.42-2.17-.69C321.91,51.08,323.07,51.45,324.22,51.83Z"/>
      <path class="cls-5" d="M322.92,51.41c-.79-.26-1.59-.5-2.38-.75l.21.06Z"/>
      <path class="cls-5" d="M320.46,50.63l.08,0-1.88-.56Z"/>
      <path d="M320.46,50.63l-1.8-.53-.55-.17Z"/>
      <path d="M318.1,49.93l-.54-.15-1.77-.52Z"/>
      <path class="cls-5" d="M315.79,49.26l1.77.52q-1.1-.33-2.19-.63Z"/>
      <path class="cls-5" d="M313.25,48.57c.71.18,1.42.38,2.12.58Z"/>
      <path d="M313.25,48.57l-2-.53C311.93,48.21,312.59,48.38,313.25,48.57Z"/>
      <path d="M305.2,255.7h-.1a49.8,49.8,0,0,0-1.49-12.12A52.94,52.94,0,0,1,305.2,255.7Z"/>
      <path d="M304.4,264.61c.13-.71.24-1.43.34-2.15A47.73,47.73,0,0,1,302.1,273,49.26,49.26,0,0,0,304.4,264.61Z"/>
      <path d="M301.7,45.8q4.31.9,8.55,2c-2.82-.71-5.66-1.37-8.52-2Z"/>
      <path class="cls-4" d="M302,238.4a52.74,52.74,0,0,1,1.61,5.18,49.8,49.8,0,0,1,1.49,12.12h.1c0,.79,0,1.58-.46,6.76-.1.72-.21,1.44-.34,2.15a49.26,49.26,0,0,1-2.3,8.39c-.22.59-.45,1.17-.69,1.75a49.59,49.59,0,0,1-37.82,29.74,50.36,50.36,0,0,1-5.81.57c-.66,0-1.32,0-2,0s-1.32,0-2,0a50.36,50.36,0,0,1-5.81-.57,49.59,49.59,0,0,1-37.82-29.74c-.24-.58-.47-1.16-.69-1.75a49.6,49.6,0,0,1-3.1-17.3h-.1a50.22,50.22,0,0,1,.8-8.91,49.26,49.26,0,0,1,2.3-8.39c.22-.59.45-1.17.69-1.75a49.59,49.59,0,0,1,37.82-29.74,50.36,50.36,0,0,1,5.81-.57c.66,0,1.32,0,2,0s1.32,0,2,0a50.36,50.36,0,0,1,5.81.57,49.59,49.59,0,0,1,37.82,29.74C301.55,237.23,301.78,237.81,302,238.4Z"/>
      <path d="M263.49,206.91a49.35,49.35,0,0,1,37.82,29.74A49.59,49.59,0,0,0,263.49,206.91Z"/>
      <path class="cls-6" d="M257.1,41.2a216.58,216.58,0,0,1,44.63,4.62C365.51,79.52,411,152.41,416.4,238.4H337.88a83.68,83.68,0,0,0-20.09-39.08,79.78,79.78,0,0,0-6.12-6.08A83.86,83.86,0,0,0,173.6,238.4H42Q42.89,228,44.74,218c.31-1.68.63-3.35,1-5q1-5,2.3-9.89.63-2.45,1.32-4.88c.23-.81.46-1.62.7-2.42q.72-2.42,1.48-4.81,1.15-3.58,2.43-7.12.86-2.35,1.75-4.68A216.32,216.32,0,0,1,213.33,45.64l2.5-.5A216.71,216.71,0,0,1,257.1,41.2Z"/>
      <path d="M257.68,206.34a50.36,50.36,0,0,1,5.81.57A50.36,50.36,0,0,0,257.68,206.34Z"/>
      <path d="M209.5,273c.22.59.45,1.17.69,1.75A49.35,49.35,0,0,0,248,304.49a50.36,50.36,0,0,0,5.81.57c.66,0,1.32,0,2,0s1.32,0,2,0a50.36,50.36,0,0,0,5.81-.57,49.35,49.35,0,0,0,37.82-29.74c.24-.58.47-1.16.69-1.75a47.73,47.73,0,0,0,2.64-10.54c.44-5.18.46-6,.46-6.76a51.72,51.72,0,0,0-3.2-17.3c-.22-.59-.45-1.17-.69-1.75a49.35,49.35,0,0,0-37.82-29.74,50.36,50.36,0,0,0-5.81-.57c-.66,0-1.32,0-2,0s-1.32,0-2,0a50.36,50.36,0,0,0-5.81.57,49.35,49.35,0,0,0-37.82,29.74c-.24.58-.47,1.16-.69,1.75a49.26,49.26,0,0,0-2.3,8.39,50.22,50.22,0,0,0-.8,8.91h.1A49.6,49.6,0,0,0,209.5,273Zm46.3-101.1a83.53,83.53,0,0,1,55.87,21.34,79.78,79.78,0,0,1,6.12,6.08,83.74,83.74,0,0,1,20,39.08h.08s0,.07,0,.1H472.3a214.72,214.72,0,0,0-27.58-88.4l0,0c-.8-1.42-1.63-2.82-2.47-4.22l0,0c-1.68-2.8-3.44-5.57-5.25-8.29a216.84,216.84,0,0,0-24.66-30.58c-1.14-1.17-2.28-2.33-3.44-3.47a215.68,215.68,0,0,0-20.35-17.73h0q-2-1.5-3.93-2.94t-4-2.87q-2-1.41-4.06-2.76c-.68-.46-1.37-.91-2.07-1.36q-1.67-1.08-3.36-2.13c-.53-.34-1.06-.66-1.6-1-.88-.54-1.76-1.07-2.65-1.58-.67-.41-1.34-.8-2-1.18l-.9-.52s0,0,0,0c-1.77-1-3.56-2-5.37-2.95-.37-.21-.75-.41-1.13-.6,0,0,0,0,0,0q-2.19-1.16-4.41-2.25c-1.33-.66-2.68-1.31-4-1.94q-1-.47-1.95-.9c-.47-.23-.94-.44-1.42-.65a5.05,5.05,0,0,0-.53-.24l-.1-.05L343.05,59c-1.22-.53-2.45-1-3.68-1.56l-.29-.11c-1.33-.55-2.66-1.09-4-1.6-.57-.23-1.15-.45-1.73-.66-.86-.33-1.72-.65-2.59-1l-.71-.26c-1-.38-2.1-.75-3.16-1.1l-1.65-.56c-.34-.12-.67-.23-1-.33-1.15-.38-2.31-.75-3.47-1.11l-.21-.06-.08,0-2.35-.7h0l-2.31-.67-.42-.11c-.7-.2-1.41-.4-2.12-.58s-1.32-.36-2-.53l-1-.26q-4.25-1.08-8.55-2l0,0a218,218,0,0,0-85.9-.68c-.83.16-1.67.32-2.5.5A216.16,216.16,0,0,0,55.7,179.17q-.9,2.33-1.75,4.68-1.28,3.54-2.43,7.12c-.51,1.6-1,3.2-1.48,4.81-.24.8-.47,1.61-.7,2.42q-.69,2.43-1.32,4.88-1.26,4.9-2.3,9.89c-.35,1.66-.67,3.33-1,5Q42.9,228,42,238.4H173.7A83.89,83.89,0,0,1,255.8,171.9ZM255.7,0C397,0,511.5,114.4,511.5,255.7S396.9,511.4,255.7,511.4,0,396.9,0,255.7,114.5,0,255.7,0ZM469.5,273.1h-.11s0-.07,0-.1H337.8a83.9,83.9,0,0,1-164.2,0H39.2s0,.07,0,.1h0c9.4,110.5,102.1,197.2,215.1,197.2S460,383.5,469.5,273.1Z"/>
      <path d="M248,304.49a50.36,50.36,0,0,0,5.81.57A50.36,50.36,0,0,1,248,304.49Z"/>
      <path d="M210.19,274.75A49.59,49.59,0,0,0,248,304.49,49.35,49.35,0,0,1,210.19,274.75Z"/>
      <path d="M215.83,45.14l-2.5.5C214.16,45.46,215,45.3,215.83,45.14Z"/>
      <path d="M255.7,171.8a83.5,83.5,0,0,1,56,21.44,83.89,83.89,0,0,0-138,45.16h-.1A84,84,0,0,1,255.7,171.8Z"/>
      <path d="M337.8,273.1a83.9,83.9,0,0,1-164.2,0H39.21s0-.07,0-.1H173.6a83.9,83.9,0,0,0,164.2,0h78.6a.34.34,0,0,1,0,.1Z"/>
      <path d="M213.33,45.64A216.32,216.32,0,0,0,55.7,179.17,216.16,216.16,0,0,1,213.33,45.64Z"/>
      <path d="M54,183.85q-1.28,3.54-2.43,7.12Q52.68,187.39,54,183.85Z"/>
      <path d="M51.52,191q-.77,2.4-1.48,4.81C50.51,194.17,51,192.57,51.52,191Z"/>
      <path d="M49.34,198.2q-.69,2.43-1.32,4.88Q48.65,200.64,49.34,198.2Z"/>
      <path d="M45.72,213c-.35,1.66-.67,3.33-1,5C45.05,216.3,45.37,214.63,45.72,213Z"/>
    </g>
  </g>
</svg>
